<?xml version="1.0" encoding="utf-8"?>
<!-- Created by sK1 2.0rc4 (https://sk1project.net/) -->
<svg xmlns="http://www.w3.org/2000/svg" height="354.0pt" viewBox="0 0 500.0 354.0" width="500.0pt" version="1.1" xmlns:xlink="http://www.w3.org/1999/xlink" id="0f4f984e-25b3-11ea-a31a-505bc27eb2db">

<g>
	<g>
		<path style="stroke-width:0.2078;stroke:#2d2c2b;fill-rule:evenodd;stroke-miterlimit:10.433;fill:#e31c2a;" d="M -27.9673,364.9254 L -27.9673,23.5881 518.2375,29.0023 518.2375,370.3395 -27.9673,364.9254 Z M -27.9673,364.9254" />
		<path style="stroke-width:0.2078;stroke:#2d2c2b;fill-rule:evenodd;stroke-miterlimit:10.433;fill:#2d2c2b;" d="M -27.8409,90.4626 L -27.8409,-1.5057 518.4,-1.5057 518.4,90.4626 -27.8409,90.4626 Z M -27.8409,90.4626" />
		<path style="stroke-width:0.2078;stroke:#2d2c2b;fill-rule:evenodd;stroke-miterlimit:10.433;fill:#2d2c2b;" d="M 72.867,257.1862 L 72.867,0.1721 384.5842,0.1721 384.5842,257.1862 72.867,257.1862 Z M 72.867,257.1862" />
		<path style="fill:#2d2c2b;" d="M 518.1112,65.9405 L 367.2329,65.9405 367.2329,257.1323 518.1112,257.1323 518.1112,65.9405 Z M 419.4556,119.3385 L 431.7695,103.7309 476.9385,160.9741 431.7695,218.2083 419.4556,202.6007 452.3107,160.9741 419.4556,119.3385 Z M 419.4556,119.3385" />
		<path style="fill:#2d2c2b;" d="M -28.1358,65.7863 L 118.704,65.7863 118.704,257.4135 -28.1358,257.4135 -28.1358,65.7863 Z M 67.8776,119.3023 L 55.8887,103.6583 11.9295,161.0286 55.8887,218.4079 67.8776,202.7639 35.9012,161.0286 67.8776,119.3023 Z M 67.8776,119.3023" />
		<path style="stroke-width:0.2078;stroke:#00a0e1;fill-rule:evenodd;stroke-miterlimit:0.0;fill:#eceded;" d="M 122.3091,175.3933 L 123.1216,176.1823 C 121.5749,180.8891 119.8476,184.2628 117.9698,186.2942 116.1161,188.3438 113.9735,189.3414 111.536,189.3414 108.8337,189.3414 106.4563,187.9085 104.4161,184.9883 101.9364,181.4967 100.7087,176.7899 100.7087,170.8679 100.7087,164.4108 102.0688,159.2687 104.8193,155.4326 107.2809,152.0136 110.236,150.2905 113.6786,150.2905 114.7258,150.2905 115.7971,150.5535 116.9225,151.0795 118.042,151.5511 119.011,152.1859 119.8175,152.993 120.63,153.7548 121.2378,154.6889 121.6712,155.7863 122.0925,156.8292 122.3091,157.7905 122.3091,158.6611 122.3091,159.7675 122.0804,160.6653 121.617,161.3637 121.1837,162.0166 120.5276,162.325 119.6489,162.325 118.9087,162.325 118.2827,161.9713 117.7952,161.273 117.3318,160.5747 116.9948,159.6587 116.8082,158.4888 L 116.4591,156.7385 C 116.1883,155.2421 115.8813,154.2808 115.5323,153.8636 114.9846,153.12 114.0276,152.73 112.6374,152.73 110.9763,152.73 109.4656,153.646 108.1235,155.4326 106.1494,158.117 105.1684,162.1255 105.1684,167.4671 105.1684,172.1285 106.005,175.9193 107.7142,178.8849 109.4114,181.8051 111.5119,183.238 114.0276,183.238 115.9114,183.238 117.5786,182.458 119.011,180.8891 120.0101,179.8008 121.1114,177.9689 122.3091,175.3933 Z M 122.3091,175.3933" />
		<path style="stroke-width:0.2078;stroke:#00a0e1;fill-rule:evenodd;stroke-miterlimit:0.0;fill:#eceded;" d="M 139.3957,150.2905 C 143.2897,150.2905 146.4314,152.0136 148.8327,155.4326 151.2221,158.8788 152.4258,163.5856 152.4258,169.5529 152.4258,174.3323 151.3846,178.6672 149.2962,182.5487 146.8647,187.0741 143.6207,189.3414 139.5702,189.3414 135.8628,189.3414 132.8054,187.4913 130.4161,183.764 128.0568,179.9913 126.8832,175.2664 126.8832,169.5529 126.8832,164.1478 127.9846,159.6859 130.1874,156.1309 132.5346,152.2494 135.604,150.2905 139.3957,150.2905 Z M 140.3827,186.9018 C 142.1883,186.9018 143.6929,185.9224 144.8966,183.9363 146.4314,181.3879 147.2138,177.3794 147.2138,171.9109 147.2138,166.6327 146.4735,162.1073 145.011,158.3074 143.5364,154.5438 141.5082,152.6484 138.9323,152.6484 136.9943,152.6484 135.3693,153.782 134.0693,156.0402 132.7513,158.2711 132.0952,161.4271 132.0952,165.5444 132.0952,170.3873 132.5888,174.6769 133.6059,178.4496 135.0684,184.0905 137.3253,186.9018 140.3827,186.9018 Z M 140.3827,186.9018" />
		<path style="stroke-width:0.2078;stroke:#00a0e1;fill-rule:evenodd;stroke-miterlimit:0.0;fill:#eceded;" d="M 174.5499,179.9278 L 174.5499,160.9283 C 174.3453,158.2711 173.6832,156.2216 172.5216,154.8249 171.3661,153.383 170.048,152.6484 168.5855,152.6484 166.6897,152.6484 165.0828,153.782 163.7767,156.0402 162.1818,158.8334 161.4054,162.7966 161.4054,167.9024 161.4054,173.6521 162.242,178.0143 163.9513,180.9798 165.4138,183.5917 167.2253,184.8976 169.392,184.8976 170.6679,184.8976 171.7814,184.4623 172.7564,183.5917 173.7073,182.6757 174.3152,181.4514 174.5499,179.9278 Z M 183.2948,183.5917 L 183.2948,184.8976 174.7786,189.3414 174.5499,189.0874 174.5499,183.9363 C 173.5388,185.8589 172.3772,187.2555 171.0772,188.1261 169.8013,188.9514 168.423,189.3414 166.9605,189.3414 163.7466,189.3414 161.1828,187.6636 159.2628,184.29 157.361,180.9345 156.4221,176.4181 156.4221,170.7772 156.4221,165.2633 157.5957,160.4658 159.955,156.3939 162.3443,152.3401 165.167,150.2905 168.411,150.2905 169.6869,150.2905 170.7582,150.5988 171.655,151.1611 172.5397,151.6871 173.5087,152.6031 174.5499,153.8636 L 174.5499,140.7046 C 174.5499,139.0903 174.4476,138.0474 174.261,137.5667 173.9119,136.7596 173.1596,136.3424 172.0041,136.3424 L 170.6138,136.3424 170.6138,135.0365 C 172.5818,134.2928 174.0564,133.6852 175.0735,133.2046 176.1147,132.7511 177.4568,132.1163 179.124,131.291 L 179.4129,131.4633 179.4129,178.8849 C 179.4129,180.7984 179.5573,182.0046 179.8763,182.458 180.3397,183.2198 181.4712,183.5917 183.2948,183.5917 Z M 183.2948,183.5917" />
		<path style="stroke-width:0.2078;stroke:#00a0e1;fill-rule:evenodd;stroke-miterlimit:0.0;fill:#eceded;" d="M 208.1393,174.7857 L 209.0661,175.3933 C 208.3981,178.3135 207.3448,180.9526 205.8823,183.3287 203.4027,187.3371 200.3814,189.3414 196.7883,189.3414 193.5022,189.3414 190.8842,187.7362 188.9101,184.4623 186.942,181.2156 185.961,176.663 185.961,170.7772 185.961,163.8032 187.3513,158.4888 190.1258,154.8249 192.3587,151.8141 194.9045,150.2905 197.7754,150.2905 200.6703,150.2905 202.9573,151.4694 204.6666,153.782 206.5443,156.3939 207.6457,160.3117 207.9647,165.5444 L 189.9573,165.5444 C 189.9573,172.1285 190.9985,176.926 193.0809,179.9278 194.7059,182.3311 196.7281,183.501 199.1656,183.501 201.3925,183.501 203.3605,182.458 205.0698,180.3631 206.0268,179.1479 207.0559,177.2887 208.1393,174.7857 Z M 190.1258,162.9326 L 202.0605,162.9326 C 201.7416,160.0305 201.3323,157.9447 200.8448,156.6569 199.942,154.4531 198.4976,153.3376 196.4994,153.3376 194.7601,153.3376 193.3698,154.0813 192.3286,155.5233 191.3175,156.9199 190.5892,159.4048 190.1258,162.9326 Z M 190.1258,162.9326" />
		<path style="stroke-width:0.2078;stroke:#00a0e1;fill-rule:evenodd;stroke-miterlimit:0.0;fill:#eceded;" d="M 211.5578,189.3414 L 211.5578,187.6908 C 213.8328,187.6908 215.2772,187.0741 215.9031,185.8589 216.3906,184.8795 216.6555,182.6757 216.6555,179.2295 L 216.6555,142.7088 C 216.6555,139.6344 216.3365,137.6302 215.7286,136.6961 215.1027,135.7076 213.7124,135.2088 211.5578,135.2088 L 211.5578,133.5582 227.6573,133.5582 227.6573,135.2088 C 225.5268,135.2088 224.1365,135.6895 223.4865,136.6054 222.8666,137.476 222.5596,139.2898 222.5596,142.0105 L 222.5596,156.8292 240.1096,156.8292 240.1096,142.0105 C 240.1096,139.2173 239.7907,137.3853 239.1828,136.5147 238.5569,135.6441 237.1726,135.2088 235.012,135.2088 L 235.012,133.5582 251.1115,133.5582 251.1115,135.2088 C 248.987,135.2088 247.5967,135.7076 246.9407,136.6961 246.3208,137.6937 246.0138,139.6979 246.0138,142.7088 L 246.0138,180.1908 C 246.0138,183.111 246.3087,185.0699 246.8865,186.1219 247.4944,187.1648 248.9147,187.6908 251.1115,187.6908 L 251.1115,189.3414 235.012,189.3414 235.012,187.6908 C 237.287,187.6908 238.7314,187.0379 239.3573,185.6866 239.8508,184.6346 240.1096,182.2404 240.1096,178.4496 L 240.1096,160.493 222.5596,160.493 222.5596,179.4925 C 222.5596,182.6938 222.8485,184.8795 223.4323,186.0312 224.0402,187.1467 225.4545,187.6908 227.6573,187.6908 L 227.6573,189.3414 211.5578,189.3414 Z M 211.5578,189.3414" />
		<path style="stroke-width:0.2078;stroke:#00a0e1;fill-rule:evenodd;stroke-miterlimit:0.0;fill:#eceded;" d="M 265.4175,150.2905 C 269.3115,150.2905 272.4532,152.0136 274.8606,155.4326 277.2439,158.8788 278.4476,163.5856 278.4476,169.5529 278.4476,174.3323 277.4064,178.6672 275.318,182.5487 272.8865,187.0741 269.6425,189.3414 265.5921,189.3414 261.8847,189.3414 258.8272,187.4913 256.4379,183.764 254.0786,179.9913 252.905,175.2664 252.905,169.5529 252.905,164.1478 254.0064,159.6859 256.2092,156.1309 258.5564,152.2494 261.6259,150.2905 265.4175,150.2905 Z M 266.4046,186.9018 C 268.2101,186.9018 269.7147,185.9224 270.9184,183.9363 272.4532,181.3879 273.2356,177.3794 273.2356,171.9109 273.2356,166.6327 272.4953,162.1073 271.0328,158.3074 269.5583,154.5438 267.53,152.6484 264.9541,152.6484 263.0161,152.6484 261.3911,153.782 260.0911,156.0402 258.7731,158.2711 258.1231,161.4271 258.1231,165.5444 258.1231,170.3873 258.6106,174.6769 259.6277,178.4496 261.0902,184.0905 263.3472,186.9018 266.4046,186.9018 Z M 266.4046,186.9018" />
		<path style="stroke-width:0.2078;stroke:#00a0e1;fill-rule:evenodd;stroke-miterlimit:0.0;fill:#eceded;" d="M 282.0948,189.3414 L 282.0948,188.0355 C 283.7921,188.0355 284.9476,187.6001 285.5735,186.7295 286.2235,185.8589 286.5546,184.2628 286.5546,181.932 L 286.5546,141.5752 C 286.5546,139.5438 286.3981,138.1743 286.0911,137.476 285.7722,136.7324 285.068,136.3424 283.9485,136.3424 L 281.9805,136.3424 281.9805,135.1272 C 284.9055,134.0298 286.8194,133.2952 287.7161,132.9416 287.9448,132.8327 289.1064,132.3158 291.1888,131.3726 L 291.4236,131.5449 291.4236,182.195 C 291.4236,184.6346 291.7124,186.2489 292.2902,186.9925 292.868,187.6908 294.0296,188.0355 295.7629,188.0355 L 295.7629,189.3414 282.0948,189.3414 Z M 282.0948,189.3414" />
		<path style="stroke-width:0.2078;stroke:#00a0e1;fill-rule:evenodd;stroke-miterlimit:0.0;fill:#eceded;" d="M 296.6356,189.3414 L 296.6356,188.0355 C 298.5134,188.0355 299.7592,187.6455 300.343,186.8202 300.9208,186.0131 301.2097,184.0905 301.2097,181.0614 L 301.2097,162.2343 C 301.2097,160.1394 300.993,158.7427 300.5717,158.0535 300.2949,157.591 299.8314,157.3552 299.1814,157.3552 298.7902,157.3552 298.4893,157.3915 298.2546,157.4368 298.0499,157.4368 297.5865,157.5275 296.8643,157.6998 L 296.8643,156.4846 C 298.6759,155.6774 300.1685,154.9519 301.324,154.2989 303.3222,153.3195 304.8268,152.5577 305.8439,152.0317 L 306.0726,152.2947 306.0726,181.0614 C 306.0726,183.9181 306.3074,185.8136 306.7708,186.7295 307.2583,187.6001 308.462,188.0355 310.3578,188.0355 L 310.3578,189.3414 296.6356,189.3414 Z M 300.2226,137.8297 C 300.2226,136.8412 300.4273,135.9525 300.8606,135.1272 301.4384,134.0752 302.1907,133.5582 303.1175,133.5582 303.9601,133.5582 304.6824,133.9936 305.2601,134.8642 305.8439,135.6895 306.1328,136.6689 306.1328,137.8297 306.1328,139.1084 305.8439,140.1604 305.2601,140.9676 304.7124,141.7929 304.0023,142.1828 303.1175,142.1828 302.1907,142.1828 301.4685,141.7294 300.9749,140.7862 300.4694,139.8068 300.2226,138.8273 300.2226,137.8297 Z M 300.2226,137.8297" />
		<path style="stroke-width:0.2078;stroke:#00a0e1;fill-rule:evenodd;stroke-miterlimit:0.0;fill:#e31c2a;" d="M 349.2676,135.8708 L 349.2676,144.8128 C 347.3416,142.1556 345.2773,140.1695 343.0986,138.8545 340.9018,137.5486 338.5847,136.8956 336.1351,136.8956 331.2902,136.8956 327.6009,139.0903 325.037,143.4525 322.4611,147.8418 321.1851,154.172 321.1851,162.461 321.1851,170.7682 322.4611,177.0892 325.037,181.4605 327.6009,185.8498 331.2902,188.0173 336.1351,188.0173 338.5847,188.0173 340.9018,187.3825 343.0986,186.0584 345.2773,184.7616 347.3416,182.7845 349.2676,180.1001 L 349.2676,188.9605 C 347.2574,191.001 345.1328,192.579 342.8699,193.6491 340.637,194.6649 338.2838,195.1818 335.7921,195.1818 329.4125,195.1818 324.3689,192.2616 320.6796,186.403 317.0143,180.5626 315.1847,172.5729 315.1847,162.461 315.1847,152.3582 317.0143,144.3684 320.6796,138.5099 324.3689,132.6695 329.4125,129.7312 335.7921,129.7312 338.3139,129.7312 340.6912,130.2481 342.924,131.2638 345.193,132.2886 347.2995,133.8212 349.2676,135.8708 Z M 349.2676,135.8708" />
		<path style="stroke-width:0.2078;stroke:#00a0e1;fill-rule:evenodd;stroke-miterlimit:0.0;fill:#e31c2a;" d="M 382.7847,132.9688 L 382.7847,141.412 C 380.6301,139.8702 378.5958,138.7457 376.6699,138.002 374.744,137.213 372.8782,136.8049 371.0666,136.8049 367.9671,136.8049 365.5717,137.7209 363.8745,139.5347 362.1773,141.3031 361.3287,143.8334 361.3287,147.1163 361.3287,149.9731 361.8944,152.1043 363.0259,153.5099 364.1574,154.8703 366.2819,156.022 369.4236,156.9199 L 372.8782,157.9447 C 377.1393,159.1327 380.2629,161.2639 382.2731,164.3292 384.3134,167.4036 385.3305,171.4665 385.3305,176.5179 385.3305,182.6576 383.9463,187.319 381.1958,190.4931 378.4815,193.6219 374.4611,195.1818 369.1407,195.1818 367.1305,195.1818 365.006,194.8372 362.743,194.157 360.5041,193.4315 358.187,192.4067 355.7796,191.0917 L 355.7796,182.2313 C 358.0727,184.163 360.3356,185.6322 362.5745,186.657 364.7953,187.6364 366.9861,188.108 369.1407,188.108 372.4208,188.108 374.9426,187.1739 376.7241,185.2966 378.4935,183.374 379.3842,180.6533 379.3842,177.1164 379.3842,174.0421 378.7342,171.6388 377.4643,169.8703 376.1764,168.12 374.0819,166.805 371.175,165.9525 L 367.7264,164.9278 C 363.4472,163.6309 360.3657,161.6448 358.4398,158.9604 356.544,156.3032 355.6111,152.5486 355.6111,147.7149 355.6111,142.1556 356.9111,137.7844 359.5171,134.5921 362.1472,131.3545 365.8004,129.7312 370.4407,129.7312 372.3967,129.7312 374.4069,130.0304 376.4412,130.5836 378.5116,131.1006 380.6301,131.9077 382.7847,132.9688 Z M 382.7847,132.9688" />
	</g>
</g>
</svg>